<svg xmlns="http://www.w3.org/2000/svg" version="1.1" xmlns:xlink="http://www.w3.org/1999/xlink" xmlns:svgjs="http://svgjs.com/svgjs" width="500" height="500" viewBox="0 0 500 500" id="shor" xml:space="preserve" x="22" y="22"><svg id="SvgjsSvg1002" width="2" height="0" focusable="false" style="overflow: hidden; top: -100%; left: -100%; position: absolute; opacity: 0"><polyline id="SvgjsPolyline1003" points="0,0"></polyline><path id="SvgjsPath1004" d="M87.02702702702702 43.89851351351351C87.02702702702702 67.93054354354354 67.54554354354354 87.41202702702701 43.51351351351351 87.41202702702701S0 67.93054354354354 0 43.8985135135135S19.48148348348348 0.3849999999999909 43.51351351351351 0.3849999999999909S87.02702702702702 19.86648348348348 87.02702702702702 43.89851351351351ZM43.51351351351351 10.054669669669668C24.82204204204204 10.054669669669668 9.66966966966967 25.20704204204204 9.66966966966967 43.89851351351351S24.82204204204204 77.74235735735735 43.51351351351351 77.74235735735735S77.35735735735736 62.589984984984966 77.35735735735736 43.8985135135135S62.204984984984975 10.054669669669668 43.51351351351351 10.054669669669668Z "></path></svg><defs id="SvgjsDefs1529331"><linearGradient id="linearGradient" gradientUnits="userSpaceOnUse" x1="0" y1="0" x2="500" y2="0"><stop id="SvgjsStop1529333" stop-color="#ff0000" offset="0"></stop><stop id="SvgjsStop1529334" stop-color="#0000ff" offset="1"></stop></linearGradient></defs><rect id="background" width="500" height="500" fill-opacity="0"></rect><path id="r0C9" d="M162.75862068965517,20H179.41379310344828V36.6551724137931H162.75862068965517V20Z" fill="#000000"></path><path id="r0C15" d="M257.9310344827586,20H274.5862068965517V36.6551724137931H257.9310344827586V20Z" fill="#000000"></path><path id="r0C18" d="M305.51724137931035,20H322.17241379310343V36.6551724137931H305.51724137931035V20Z" fill="#000000"></path><path id="r0C19" d="M321.3793103448276,20H338.0344827586207V36.6551724137931H321.3793103448276V20Z" fill="#000000"></path><path id="r1C8" d="M146.89655172413794,35.86206896551724H163.55172413793105V52.51724137931034H146.89655172413794V35.86206896551724Z" fill="#000000"></path><path id="r1C9" d="M162.75862068965517,35.86206896551724H179.41379310344828V52.51724137931034H162.75862068965517V35.86206896551724Z" fill="#000000"></path><path id="r1C10" d="M178.6206896551724,35.86206896551724H195.27586206896552V52.51724137931034H178.6206896551724V35.86206896551724Z" fill="#000000"></path><path id="r1C11" d="M194.48275862068965,35.86206896551724H211.13793103448276V52.51724137931034H194.48275862068965V35.86206896551724Z" fill="#000000"></path><path id="r1C13" d="M226.20689655172416,35.86206896551724H242.86206896551727V52.51724137931034H226.20689655172416V35.86206896551724Z" fill="#000000"></path><path id="r1C20" d="M337.2413793103448,35.86206896551724H353.8965517241379V52.51724137931034H337.2413793103448V35.86206896551724Z" fill="#000000"></path><path id="r2C14" d="M242.0689655172414,51.724137931034484H258.7241379310345V68.37931034482759H242.0689655172414V51.724137931034484Z" fill="#000000"></path><path id="r2C17" d="M289.65517241379314,51.724137931034484H306.3103448275862V68.37931034482759H289.65517241379314V51.724137931034484Z" fill="#000000"></path><path id="r2C19" d="M321.3793103448276,51.724137931034484H338.0344827586207V68.37931034482759H321.3793103448276V51.724137931034484Z" fill="#000000"></path><path id="r2C20" d="M337.2413793103448,51.724137931034484H353.8965517241379V68.37931034482759H337.2413793103448V51.724137931034484Z" fill="#000000"></path><path id="r3C9" d="M162.75862068965517,67.58620689655173H179.41379310344828V84.24137931034483H162.75862068965517V67.58620689655173Z" fill="#000000"></path><path id="r3C10" d="M178.6206896551724,67.58620689655173H195.27586206896552V84.24137931034483H178.6206896551724V67.58620689655173Z" fill="#000000"></path><path id="r3C11" d="M194.48275862068965,67.58620689655173H211.13793103448276V84.24137931034483H194.48275862068965V67.58620689655173Z" fill="#000000"></path><path id="r3C13" d="M226.20689655172416,67.58620689655173H242.86206896551727V84.24137931034483H226.20689655172416V67.58620689655173Z" fill="#000000"></path><path id="r3C14" d="M242.0689655172414,67.58620689655173H258.7241379310345V84.24137931034483H242.0689655172414V67.58620689655173Z" fill="#000000"></path><path id="r3C15" d="M257.9310344827586,67.58620689655173H274.5862068965517V84.24137931034483H257.9310344827586V67.58620689655173Z" fill="#000000"></path><path id="r3C19" d="M321.3793103448276,67.58620689655173H338.0344827586207V84.24137931034483H321.3793103448276V67.58620689655173Z" fill="#000000"></path><path id="r3C20" d="M337.2413793103448,67.58620689655173H353.8965517241379V84.24137931034483H337.2413793103448V67.58620689655173Z" fill="#000000"></path><path id="r4C9" d="M162.75862068965517,83.44827586206897H179.41379310344828V100.10344827586206H162.75862068965517V83.44827586206897Z" fill="#000000"></path><path id="r4C11" d="M194.48275862068965,83.44827586206897H211.13793103448276V100.10344827586206H194.48275862068965V83.44827586206897Z" fill="#000000"></path><path id="r4C15" d="M257.9310344827586,83.44827586206897H274.5862068965517V100.10344827586206H257.9310344827586V83.44827586206897Z" fill="#000000"></path><path id="r4C16" d="M273.7931034482759,83.44827586206897H290.44827586206895V100.10344827586206H273.7931034482759V83.44827586206897Z" fill="#000000"></path><path id="r4C18" d="M305.51724137931035,83.44827586206897H322.17241379310343V100.10344827586206H305.51724137931035V83.44827586206897Z" fill="#000000"></path><path id="r5C8" d="M146.89655172413794,99.3103448275862H163.55172413793105V115.9655172413793H146.89655172413794V99.3103448275862Z" fill="#000000"></path><path id="r5C9" d="M162.75862068965517,99.3103448275862H179.41379310344828V115.9655172413793H162.75862068965517V99.3103448275862Z" fill="#000000"></path><path id="r5C12" d="M210.34482758620692,99.3103448275862H227.00000000000003V115.9655172413793H210.34482758620692V99.3103448275862Z" fill="#000000"></path><path id="r5C13" d="M226.20689655172416,99.3103448275862H242.86206896551727V115.9655172413793H226.20689655172416V99.3103448275862Z" fill="#000000"></path><path id="r5C14" d="M242.0689655172414,99.3103448275862H258.7241379310345V115.9655172413793H242.0689655172414V99.3103448275862Z" fill="#000000"></path><path id="r5C15" d="M257.9310344827586,99.3103448275862H274.5862068965517V115.9655172413793H257.9310344827586V99.3103448275862Z" fill="#000000"></path><path id="r5C18" d="M305.51724137931035,99.3103448275862H322.17241379310343V115.9655172413793H305.51724137931035V99.3103448275862Z" fill="#000000"></path><path id="r5C19" d="M321.3793103448276,99.3103448275862H338.0344827586207V115.9655172413793H321.3793103448276V99.3103448275862Z" fill="#000000"></path><path id="r6C8" d="M146.89655172413794,115.17241379310346H163.55172413793105V131.82758620689657H146.89655172413794V115.17241379310346Z" fill="#000000"></path><path id="r6C10" d="M178.6206896551724,115.17241379310346H195.27586206896552V131.82758620689657H178.6206896551724V115.17241379310346Z" fill="#000000"></path><path id="r6C12" d="M210.34482758620692,115.17241379310346H227.00000000000003V131.82758620689657H210.34482758620692V115.17241379310346Z" fill="#000000"></path><path id="r6C14" d="M242.0689655172414,115.17241379310346H258.7241379310345V131.82758620689657H242.0689655172414V115.17241379310346Z" fill="#000000"></path><path id="r6C16" d="M273.7931034482759,115.17241379310346H290.44827586206895V131.82758620689657H273.7931034482759V115.17241379310346Z" fill="#000000"></path><path id="r6C18" d="M305.51724137931035,115.17241379310346H322.17241379310343V131.82758620689657H305.51724137931035V115.17241379310346Z" fill="#000000"></path><path id="r6C20" d="M337.2413793103448,115.17241379310346H353.8965517241379V131.82758620689657H337.2413793103448V115.17241379310346Z" fill="#000000"></path><path id="r7C8" d="M146.89655172413794,131.0344827586207H163.55172413793105V147.6896551724138H146.89655172413794V131.0344827586207Z" fill="#000000"></path><path id="r7C9" d="M162.75862068965517,131.0344827586207H179.41379310344828V147.6896551724138H162.75862068965517V131.0344827586207Z" fill="#000000"></path><path id="r7C11" d="M194.48275862068965,131.0344827586207H211.13793103448276V147.6896551724138H194.48275862068965V131.0344827586207Z" fill="#000000"></path><path id="r7C15" d="M257.9310344827586,131.0344827586207H274.5862068965517V147.6896551724138H257.9310344827586V131.0344827586207Z" fill="#000000"></path><path id="r7C16" d="M273.7931034482759,131.0344827586207H290.44827586206895V147.6896551724138H273.7931034482759V131.0344827586207Z" fill="#000000"></path><path id="r7C17" d="M289.65517241379314,131.0344827586207H306.3103448275862V147.6896551724138H289.65517241379314V131.0344827586207Z" fill="#000000"></path><path id="r7C18" d="M305.51724137931035,131.0344827586207H322.17241379310343V147.6896551724138H305.51724137931035V131.0344827586207Z" fill="#000000"></path><path id="r8C4" d="M83.44827586206897,146.89655172413794H100.10344827586206V163.55172413793105H83.44827586206897V146.89655172413794Z" fill="#000000"></path><path id="r8C5" d="M99.3103448275862,146.89655172413794H115.9655172413793V163.55172413793105H99.3103448275862V146.89655172413794Z" fill="#000000"></path><path id="r8C6" d="M115.17241379310346,146.89655172413794H131.82758620689657V163.55172413793105H115.17241379310346V146.89655172413794Z" fill="#000000"></path><path id="r8C7" d="M131.0344827586207,146.89655172413794H147.6896551724138V163.55172413793105H131.0344827586207V146.89655172413794Z" fill="#000000"></path><path id="r8C9" d="M162.75862068965517,146.89655172413794H179.41379310344828V163.55172413793105H162.75862068965517V146.89655172413794Z" fill="#000000"></path><path id="r8C10" d="M178.6206896551724,146.89655172413794H195.27586206896552V163.55172413793105H178.6206896551724V146.89655172413794Z" fill="#000000"></path><path id="r8C11" d="M194.48275862068965,146.89655172413794H211.13793103448276V163.55172413793105H194.48275862068965V146.89655172413794Z" fill="#000000"></path><path id="r8C12" d="M210.34482758620692,146.89655172413794H227.00000000000003V163.55172413793105H210.34482758620692V146.89655172413794Z" fill="#000000"></path><path id="r8C14" d="M242.0689655172414,146.89655172413794H258.7241379310345V163.55172413793105H242.0689655172414V146.89655172413794Z" fill="#000000"></path><path id="r8C16" d="M273.7931034482759,146.89655172413794H290.44827586206895V163.55172413793105H273.7931034482759V146.89655172413794Z" fill="#000000"></path><path id="r8C18" d="M305.51724137931035,146.89655172413794H322.17241379310343V163.55172413793105H305.51724137931035V146.89655172413794Z" fill="#000000"></path><path id="r8C22" d="M368.9655172413793,146.89655172413794H385.6206896551724V163.55172413793105H368.9655172413793V146.89655172413794Z" fill="#000000"></path><path id="r8C23" d="M384.82758620689657,146.89655172413794H401.48275862068965V163.55172413793105H384.82758620689657V146.89655172413794Z" fill="#000000"></path><path id="r8C27" d="M448.2758620689655,146.89655172413794H464.9310344827586V163.55172413793105H448.2758620689655V146.89655172413794Z" fill="#000000"></path><path id="r9C0" d="M20,162.75862068965517H36.6551724137931V179.41379310344828H20V162.75862068965517Z" fill="#000000"></path><path id="r9C4" d="M83.44827586206897,162.75862068965517H100.10344827586206V179.41379310344828H83.44827586206897V162.75862068965517Z" fill="#000000"></path><path id="r9C7" d="M131.0344827586207,162.75862068965517H147.6896551724138V179.41379310344828H131.0344827586207V162.75862068965517Z" fill="#000000"></path><path id="r9C11" d="M194.48275862068965,162.75862068965517H211.13793103448276V179.41379310344828H194.48275862068965V162.75862068965517Z" fill="#000000"></path><path id="r9C13" d="M226.20689655172416,162.75862068965517H242.86206896551727V179.41379310344828H226.20689655172416V162.75862068965517Z" fill="#000000"></path><path id="r9C14" d="M242.0689655172414,162.75862068965517H258.7241379310345V179.41379310344828H242.0689655172414V162.75862068965517Z" fill="#000000"></path><path id="r9C19" d="M321.3793103448276,162.75862068965517H338.0344827586207V179.41379310344828H321.3793103448276V162.75862068965517Z" fill="#000000"></path><path id="r9C20" d="M337.2413793103448,162.75862068965517H353.8965517241379V179.41379310344828H337.2413793103448V162.75862068965517Z" fill="#000000"></path><path id="r9C22" d="M368.9655172413793,162.75862068965517H385.6206896551724V179.41379310344828H368.9655172413793V162.75862068965517Z" fill="#000000"></path><path id="r9C23" d="M384.82758620689657,162.75862068965517H401.48275862068965V179.41379310344828H384.82758620689657V162.75862068965517Z" fill="#000000"></path><path id="r9C24" d="M400.68965517241384,162.75862068965517H417.3448275862069V179.41379310344828H400.68965517241384V162.75862068965517Z" fill="#000000"></path><path id="r9C27" d="M448.2758620689655,162.75862068965517H464.9310344827586V179.41379310344828H448.2758620689655V162.75862068965517Z" fill="#000000"></path><path id="r9C28" d="M464.1379310344828,162.75862068965517H480.7931034482759V179.41379310344828H464.1379310344828V162.75862068965517Z" fill="#000000"></path><path id="r10C0" d="M20,178.6206896551724H36.6551724137931V195.27586206896552H20V178.6206896551724Z" fill="#000000"></path><path id="r10C2" d="M51.724137931034484,178.6206896551724H68.37931034482759V195.27586206896552H51.724137931034484V178.6206896551724Z" fill="#000000"></path><path id="r10C3" d="M67.58620689655173,178.6206896551724H84.24137931034483V195.27586206896552H67.58620689655173V178.6206896551724Z" fill="#000000"></path><path id="r10C5" d="M99.3103448275862,178.6206896551724H115.9655172413793V195.27586206896552H99.3103448275862V178.6206896551724Z" fill="#000000"></path><path id="r10C6" d="M115.17241379310346,178.6206896551724H131.82758620689657V195.27586206896552H115.17241379310346V178.6206896551724Z" fill="#000000"></path><path id="r10C7" d="M131.0344827586207,178.6206896551724H147.6896551724138V195.27586206896552H131.0344827586207V178.6206896551724Z" fill="#000000"></path><path id="r10C8" d="M146.89655172413794,178.6206896551724H163.55172413793105V195.27586206896552H146.89655172413794V178.6206896551724Z" fill="#000000"></path><path id="r10C14" d="M242.0689655172414,178.6206896551724H258.7241379310345V195.27586206896552H242.0689655172414V178.6206896551724Z" fill="#000000"></path><path id="r10C15" d="M257.9310344827586,178.6206896551724H274.5862068965517V195.27586206896552H257.9310344827586V178.6206896551724Z" fill="#000000"></path><path id="r10C17" d="M289.65517241379314,178.6206896551724H306.3103448275862V195.27586206896552H289.65517241379314V178.6206896551724Z" fill="#000000"></path><path id="r10C18" d="M305.51724137931035,178.6206896551724H322.17241379310343V195.27586206896552H305.51724137931035V178.6206896551724Z" fill="#000000"></path><path id="r10C20" d="M337.2413793103448,178.6206896551724H353.8965517241379V195.27586206896552H337.2413793103448V178.6206896551724Z" fill="#000000"></path><path id="r10C21" d="M353.1034482758621,178.6206896551724H369.7586206896552V195.27586206896552H353.1034482758621V178.6206896551724Z" fill="#000000"></path><path id="r10C24" d="M400.68965517241384,178.6206896551724H417.3448275862069V195.27586206896552H400.68965517241384V178.6206896551724Z" fill="#000000"></path><path id="r10C25" d="M416.55172413793105,178.6206896551724H433.2068965517241V195.27586206896552H416.55172413793105V178.6206896551724Z" fill="#000000"></path><path id="r10C26" d="M432.4137931034483,178.6206896551724H449.0689655172414V195.27586206896552H432.4137931034483V178.6206896551724Z" fill="#000000"></path><path id="r10C28" d="M464.1379310344828,178.6206896551724H480.7931034482759V195.27586206896552H464.1379310344828V178.6206896551724Z" fill="#000000"></path><path id="r11C0" d="M20,194.48275862068965H36.6551724137931V211.13793103448276H20V194.48275862068965Z" fill="#000000"></path><path id="r11C1" d="M35.86206896551724,194.48275862068965H52.51724137931034V211.13793103448276H35.86206896551724V194.48275862068965Z" fill="#000000"></path><path id="r11C2" d="M51.724137931034484,194.48275862068965H68.37931034482759V211.13793103448276H51.724137931034484V194.48275862068965Z" fill="#000000"></path><path id="r11C7" d="M131.0344827586207,194.48275862068965H147.6896551724138V211.13793103448276H131.0344827586207V194.48275862068965Z" fill="#000000"></path><path id="r11C8" d="M146.89655172413794,194.48275862068965H163.55172413793105V211.13793103448276H146.89655172413794V194.48275862068965Z" fill="#000000"></path><path id="r11C13" d="M226.20689655172416,194.48275862068965H242.86206896551727V211.13793103448276H226.20689655172416V194.48275862068965Z" fill="#000000"></path><path id="r11C14" d="M242.0689655172414,194.48275862068965H258.7241379310345V211.13793103448276H242.0689655172414V194.48275862068965Z" fill="#000000"></path><path id="r11C17" d="M289.65517241379314,194.48275862068965H306.3103448275862V211.13793103448276H289.65517241379314V194.48275862068965Z" fill="#000000"></path><path id="r11C18" d="M305.51724137931035,194.48275862068965H322.17241379310343V211.13793103448276H305.51724137931035V194.48275862068965Z" fill="#000000"></path><path id="r11C21" d="M353.1034482758621,194.48275862068965H369.7586206896552V211.13793103448276H353.1034482758621V194.48275862068965Z" fill="#000000"></path><path id="r11C23" d="M384.82758620689657,194.48275862068965H401.48275862068965V211.13793103448276H384.82758620689657V194.48275862068965Z" fill="#000000"></path><path id="r11C27" d="M448.2758620689655,194.48275862068965H464.9310344827586V211.13793103448276H448.2758620689655V194.48275862068965Z" fill="#000000"></path><path id="r11C28" d="M464.1379310344828,194.48275862068965H480.7931034482759V211.13793103448276H464.1379310344828V194.48275862068965Z" fill="#000000"></path><path id="r12C1" d="M35.86206896551724,210.34482758620692H52.51724137931034V227.00000000000003H35.86206896551724V210.34482758620692Z" fill="#000000"></path><path id="r12C3" d="M67.58620689655173,210.34482758620692H84.24137931034483V227.00000000000003H67.58620689655173V210.34482758620692Z" fill="#000000"></path><path id="r12C4" d="M83.44827586206897,210.34482758620692H100.10344827586206V227.00000000000003H83.44827586206897V210.34482758620692Z" fill="#000000"></path><path id="r12C6" d="M115.17241379310346,210.34482758620692H131.82758620689657V227.00000000000003H115.17241379310346V210.34482758620692Z" fill="#000000"></path><path id="r12C7" d="M131.0344827586207,210.34482758620692H147.6896551724138V227.00000000000003H131.0344827586207V210.34482758620692Z" fill="#000000"></path><path id="r12C9" d="M162.75862068965517,210.34482758620692H179.41379310344828V227.00000000000003H162.75862068965517V210.34482758620692Z" fill="#000000"></path><path id="r12C11" d="M194.48275862068965,210.34482758620692H211.13793103448276V227.00000000000003H194.48275862068965V210.34482758620692Z" fill="#000000"></path><path id="r12C12" d="M210.34482758620692,210.34482758620692H227.00000000000003V227.00000000000003H210.34482758620692V210.34482758620692Z" fill="#000000"></path><path id="r12C13" d="M226.20689655172416,210.34482758620692H242.86206896551727V227.00000000000003H226.20689655172416V210.34482758620692Z" fill="#000000"></path><path id="r12C15" d="M257.9310344827586,210.34482758620692H274.5862068965517V227.00000000000003H257.9310344827586V210.34482758620692Z" fill="#000000"></path><path id="r12C18" d="M305.51724137931035,210.34482758620692H322.17241379310343V227.00000000000003H305.51724137931035V210.34482758620692Z" fill="#000000"></path><path id="r12C19" d="M321.3793103448276,210.34482758620692H338.0344827586207V227.00000000000003H321.3793103448276V210.34482758620692Z" fill="#000000"></path><path id="r12C20" d="M337.2413793103448,210.34482758620692H353.8965517241379V227.00000000000003H337.2413793103448V210.34482758620692Z" fill="#000000"></path><path id="r12C23" d="M384.82758620689657,210.34482758620692H401.48275862068965V227.00000000000003H384.82758620689657V210.34482758620692Z" fill="#000000"></path><path id="r12C25" d="M416.55172413793105,210.34482758620692H433.2068965517241V227.00000000000003H416.55172413793105V210.34482758620692Z" fill="#000000"></path><path id="r12C28" d="M464.1379310344828,210.34482758620692H480.7931034482759V227.00000000000003H464.1379310344828V210.34482758620692Z" fill="#000000"></path><path id="r13C0" d="M20,226.20689655172416H36.6551724137931V242.86206896551727H20V226.20689655172416Z" fill="#000000"></path><path id="r13C3" d="M67.58620689655173,226.20689655172416H84.24137931034483V242.86206896551727H67.58620689655173V226.20689655172416Z" fill="#000000"></path><path id="r13C4" d="M83.44827586206897,226.20689655172416H100.10344827586206V242.86206896551727H83.44827586206897V226.20689655172416Z" fill="#000000"></path><path id="r13C7" d="M131.0344827586207,226.20689655172416H147.6896551724138V242.86206896551727H131.0344827586207V226.20689655172416Z" fill="#000000"></path><path id="r13C10" d="M178.6206896551724,226.20689655172416H195.27586206896552V242.86206896551727H178.6206896551724V226.20689655172416Z" fill="#000000"></path><path id="r13C11" d="M194.48275862068965,226.20689655172416H211.13793103448276V242.86206896551727H194.48275862068965V226.20689655172416Z" fill="#000000"></path><path id="r13C14" d="M242.0689655172414,226.20689655172416H258.7241379310345V242.86206896551727H242.0689655172414V226.20689655172416Z" fill="#000000"></path><path id="r13C16" d="M273.7931034482759,226.20689655172416H290.44827586206895V242.86206896551727H273.7931034482759V226.20689655172416Z" fill="#000000"></path><path id="r13C18" d="M305.51724137931035,226.20689655172416H322.17241379310343V242.86206896551727H305.51724137931035V226.20689655172416Z" fill="#000000"></path><path id="r13C22" d="M368.9655172413793,226.20689655172416H385.6206896551724V242.86206896551727H368.9655172413793V226.20689655172416Z" fill="#000000"></path><path id="r13C24" d="M400.68965517241384,226.20689655172416H417.3448275862069V242.86206896551727H400.68965517241384V226.20689655172416Z" fill="#000000"></path><path id="r13C26" d="M432.4137931034483,226.20689655172416H449.0689655172414V242.86206896551727H432.4137931034483V226.20689655172416Z" fill="#000000"></path><path id="r13C28" d="M464.1379310344828,226.20689655172416H480.7931034482759V242.86206896551727H464.1379310344828V226.20689655172416Z" fill="#000000"></path><path id="r14C0" d="M20,242.0689655172414H36.6551724137931V258.7241379310345H20V242.0689655172414Z" fill="#000000"></path><path id="r14C1" d="M35.86206896551724,242.0689655172414H52.51724137931034V258.7241379310345H35.86206896551724V242.0689655172414Z" fill="#000000"></path><path id="r14C4" d="M83.44827586206897,242.0689655172414H100.10344827586206V258.7241379310345H83.44827586206897V242.0689655172414Z" fill="#000000"></path><path id="r14C5" d="M99.3103448275862,242.0689655172414H115.9655172413793V258.7241379310345H99.3103448275862V242.0689655172414Z" fill="#000000"></path><path id="r14C6" d="M115.17241379310346,242.0689655172414H131.82758620689657V258.7241379310345H115.17241379310346V242.0689655172414Z" fill="#000000"></path><path id="r14C8" d="M146.89655172413794,242.0689655172414H163.55172413793105V258.7241379310345H146.89655172413794V242.0689655172414Z" fill="#000000"></path><path id="r14C9" d="M162.75862068965517,242.0689655172414H179.41379310344828V258.7241379310345H162.75862068965517V242.0689655172414Z" fill="#000000"></path><path id="r14C11" d="M194.48275862068965,242.0689655172414H211.13793103448276V258.7241379310345H194.48275862068965V242.0689655172414Z" fill="#000000"></path><path id="r14C12" d="M210.34482758620692,242.0689655172414H227.00000000000003V258.7241379310345H210.34482758620692V242.0689655172414Z" fill="#000000"></path><path id="r14C14" d="M242.0689655172414,242.0689655172414H258.7241379310345V258.7241379310345H242.0689655172414V242.0689655172414Z" fill="#000000"></path><path id="r14C16" d="M273.7931034482759,242.0689655172414H290.44827586206895V258.7241379310345H273.7931034482759V242.0689655172414Z" fill="#000000"></path><path id="r14C18" d="M305.51724137931035,242.0689655172414H322.17241379310343V258.7241379310345H305.51724137931035V242.0689655172414Z" fill="#000000"></path><path id="r14C20" d="M337.2413793103448,242.0689655172414H353.8965517241379V258.7241379310345H337.2413793103448V242.0689655172414Z" fill="#000000"></path><path id="r14C21" d="M353.1034482758621,242.0689655172414H369.7586206896552V258.7241379310345H353.1034482758621V242.0689655172414Z" fill="#000000"></path><path id="r14C22" d="M368.9655172413793,242.0689655172414H385.6206896551724V258.7241379310345H368.9655172413793V242.0689655172414Z" fill="#000000"></path><path id="r14C24" d="M400.68965517241384,242.0689655172414H417.3448275862069V258.7241379310345H400.68965517241384V242.0689655172414Z" fill="#000000"></path><path id="r14C28" d="M464.1379310344828,242.0689655172414H480.7931034482759V258.7241379310345H464.1379310344828V242.0689655172414Z" fill="#000000"></path><path id="r15C1" d="M35.86206896551724,257.9310344827586H52.51724137931034V274.5862068965517H35.86206896551724V257.9310344827586Z" fill="#000000"></path><path id="r15C2" d="M51.724137931034484,257.9310344827586H68.37931034482759V274.5862068965517H51.724137931034484V257.9310344827586Z" fill="#000000"></path><path id="r15C3" d="M67.58620689655173,257.9310344827586H84.24137931034483V274.5862068965517H67.58620689655173V257.9310344827586Z" fill="#000000"></path><path id="r15C4" d="M83.44827586206897,257.9310344827586H100.10344827586206V274.5862068965517H83.44827586206897V257.9310344827586Z" fill="#000000"></path><path id="r15C5" d="M99.3103448275862,257.9310344827586H115.9655172413793V274.5862068965517H99.3103448275862V257.9310344827586Z" fill="#000000"></path><path id="r15C7" d="M131.0344827586207,257.9310344827586H147.6896551724138V274.5862068965517H131.0344827586207V257.9310344827586Z" fill="#000000"></path><path id="r15C14" d="M242.0689655172414,257.9310344827586H258.7241379310345V274.5862068965517H242.0689655172414V257.9310344827586Z" fill="#000000"></path><path id="r15C15" d="M257.9310344827586,257.9310344827586H274.5862068965517V274.5862068965517H257.9310344827586V257.9310344827586Z" fill="#000000"></path><path id="r15C18" d="M305.51724137931035,257.9310344827586H322.17241379310343V274.5862068965517H305.51724137931035V257.9310344827586Z" fill="#000000"></path><path id="r15C19" d="M321.3793103448276,257.9310344827586H338.0344827586207V274.5862068965517H321.3793103448276V257.9310344827586Z" fill="#000000"></path><path id="r15C20" d="M337.2413793103448,257.9310344827586H353.8965517241379V274.5862068965517H337.2413793103448V257.9310344827586Z" fill="#000000"></path><path id="r15C22" d="M368.9655172413793,257.9310344827586H385.6206896551724V274.5862068965517H368.9655172413793V257.9310344827586Z" fill="#000000"></path><path id="r15C23" d="M384.82758620689657,257.9310344827586H401.48275862068965V274.5862068965517H384.82758620689657V257.9310344827586Z" fill="#000000"></path><path id="r15C25" d="M416.55172413793105,257.9310344827586H433.2068965517241V274.5862068965517H416.55172413793105V257.9310344827586Z" fill="#000000"></path><path id="r15C28" d="M464.1379310344828,257.9310344827586H480.7931034482759V274.5862068965517H464.1379310344828V257.9310344827586Z" fill="#000000"></path><path id="r16C4" d="M83.44827586206897,273.7931034482759H100.10344827586206V290.44827586206895H83.44827586206897V273.7931034482759Z" fill="#000000"></path><path id="r16C6" d="M115.17241379310346,273.7931034482759H131.82758620689657V290.44827586206895H115.17241379310346V273.7931034482759Z" fill="#000000"></path><path id="r16C7" d="M131.0344827586207,273.7931034482759H147.6896551724138V290.44827586206895H131.0344827586207V273.7931034482759Z" fill="#000000"></path><path id="r16C9" d="M162.75862068965517,273.7931034482759H179.41379310344828V290.44827586206895H162.75862068965517V273.7931034482759Z" fill="#000000"></path><path id="r16C11" d="M194.48275862068965,273.7931034482759H211.13793103448276V290.44827586206895H194.48275862068965V273.7931034482759Z" fill="#000000"></path><path id="r16C16" d="M273.7931034482759,273.7931034482759H290.44827586206895V290.44827586206895H273.7931034482759V273.7931034482759Z" fill="#000000"></path><path id="r16C18" d="M305.51724137931035,273.7931034482759H322.17241379310343V290.44827586206895H305.51724137931035V273.7931034482759Z" fill="#000000"></path><path id="r16C19" d="M321.3793103448276,273.7931034482759H338.0344827586207V290.44827586206895H321.3793103448276V273.7931034482759Z" fill="#000000"></path><path id="r16C20" d="M337.2413793103448,273.7931034482759H353.8965517241379V290.44827586206895H337.2413793103448V273.7931034482759Z" fill="#000000"></path><path id="r16C21" d="M353.1034482758621,273.7931034482759H369.7586206896552V290.44827586206895H353.1034482758621V273.7931034482759Z" fill="#000000"></path><path id="r16C23" d="M384.82758620689657,273.7931034482759H401.48275862068965V290.44827586206895H384.82758620689657V273.7931034482759Z" fill="#000000"></path><path id="r16C24" d="M400.68965517241384,273.7931034482759H417.3448275862069V290.44827586206895H400.68965517241384V273.7931034482759Z" fill="#000000"></path><path id="r16C28" d="M464.1379310344828,273.7931034482759H480.7931034482759V290.44827586206895H464.1379310344828V273.7931034482759Z" fill="#000000"></path><path id="r17C0" d="M20,289.65517241379314H36.6551724137931V306.3103448275862H20V289.65517241379314Z" fill="#000000"></path><path id="r17C3" d="M67.58620689655173,289.65517241379314H84.24137931034483V306.3103448275862H67.58620689655173V289.65517241379314Z" fill="#000000"></path><path id="r17C4" d="M83.44827586206897,289.65517241379314H100.10344827586206V306.3103448275862H83.44827586206897V289.65517241379314Z" fill="#000000"></path><path id="r17C5" d="M99.3103448275862,289.65517241379314H115.9655172413793V306.3103448275862H99.3103448275862V289.65517241379314Z" fill="#000000"></path><path id="r17C7" d="M131.0344827586207,289.65517241379314H147.6896551724138V306.3103448275862H131.0344827586207V289.65517241379314Z" fill="#000000"></path><path id="r17C8" d="M146.89655172413794,289.65517241379314H163.55172413793105V306.3103448275862H146.89655172413794V289.65517241379314Z" fill="#000000"></path><path id="r17C11" d="M194.48275862068965,289.65517241379314H211.13793103448276V306.3103448275862H194.48275862068965V289.65517241379314Z" fill="#000000"></path><path id="r17C13" d="M226.20689655172416,289.65517241379314H242.86206896551727V306.3103448275862H226.20689655172416V289.65517241379314Z" fill="#000000"></path><path id="r17C15" d="M257.9310344827586,289.65517241379314H274.5862068965517V306.3103448275862H257.9310344827586V289.65517241379314Z" fill="#000000"></path><path id="r17C18" d="M305.51724137931035,289.65517241379314H322.17241379310343V306.3103448275862H305.51724137931035V289.65517241379314Z" fill="#000000"></path><path id="r17C19" d="M321.3793103448276,289.65517241379314H338.0344827586207V306.3103448275862H321.3793103448276V289.65517241379314Z" fill="#000000"></path><path id="r17C23" d="M384.82758620689657,289.65517241379314H401.48275862068965V306.3103448275862H384.82758620689657V289.65517241379314Z" fill="#000000"></path><path id="r17C24" d="M400.68965517241384,289.65517241379314H417.3448275862069V306.3103448275862H400.68965517241384V289.65517241379314Z" fill="#000000"></path><path id="r17C28" d="M464.1379310344828,289.65517241379314H480.7931034482759V306.3103448275862H464.1379310344828V289.65517241379314Z" fill="#000000"></path><path id="r18C2" d="M51.724137931034484,305.51724137931035H68.37931034482759V322.17241379310343H51.724137931034484V305.51724137931035Z" fill="#000000"></path><path id="r18C3" d="M67.58620689655173,305.51724137931035H84.24137931034483V322.17241379310343H67.58620689655173V305.51724137931035Z" fill="#000000"></path><path id="r18C6" d="M115.17241379310346,305.51724137931035H131.82758620689657V322.17241379310343H115.17241379310346V305.51724137931035Z" fill="#000000"></path><path id="r18C9" d="M162.75862068965517,305.51724137931035H179.41379310344828V322.17241379310343H162.75862068965517V305.51724137931035Z" fill="#000000"></path><path id="r18C10" d="M178.6206896551724,305.51724137931035H195.27586206896552V322.17241379310343H178.6206896551724V305.51724137931035Z" fill="#000000"></path><path id="r18C11" d="M194.48275862068965,305.51724137931035H211.13793103448276V322.17241379310343H194.48275862068965V305.51724137931035Z" fill="#000000"></path><path id="r18C13" d="M226.20689655172416,305.51724137931035H242.86206896551727V322.17241379310343H226.20689655172416V305.51724137931035Z" fill="#000000"></path><path id="r18C14" d="M242.0689655172414,305.51724137931035H258.7241379310345V322.17241379310343H242.0689655172414V305.51724137931035Z" fill="#000000"></path><path id="r18C15" d="M257.9310344827586,305.51724137931035H274.5862068965517V322.17241379310343H257.9310344827586V305.51724137931035Z" fill="#000000"></path><path id="r18C19" d="M321.3793103448276,305.51724137931035H338.0344827586207V322.17241379310343H321.3793103448276V305.51724137931035Z" fill="#000000"></path><path id="r18C23" d="M384.82758620689657,305.51724137931035H401.48275862068965V322.17241379310343H384.82758620689657V305.51724137931035Z" fill="#000000"></path><path id="r18C25" d="M416.55172413793105,305.51724137931035H433.2068965517241V322.17241379310343H416.55172413793105V305.51724137931035Z" fill="#000000"></path><path id="r18C26" d="M432.4137931034483,305.51724137931035H449.0689655172414V322.17241379310343H432.4137931034483V305.51724137931035Z" fill="#000000"></path><path id="r18C28" d="M464.1379310344828,305.51724137931035H480.7931034482759V322.17241379310343H464.1379310344828V305.51724137931035Z" fill="#000000"></path><path id="r19C5" d="M99.3103448275862,321.3793103448276H115.9655172413793V338.0344827586207H99.3103448275862V321.3793103448276Z" fill="#000000"></path><path id="r19C7" d="M131.0344827586207,321.3793103448276H147.6896551724138V338.0344827586207H131.0344827586207V321.3793103448276Z" fill="#000000"></path><path id="r19C8" d="M146.89655172413794,321.3793103448276H163.55172413793105V338.0344827586207H146.89655172413794V321.3793103448276Z" fill="#000000"></path><path id="r19C9" d="M162.75862068965517,321.3793103448276H179.41379310344828V338.0344827586207H162.75862068965517V321.3793103448276Z" fill="#000000"></path><path id="r19C13" d="M226.20689655172416,321.3793103448276H242.86206896551727V338.0344827586207H226.20689655172416V321.3793103448276Z" fill="#000000"></path><path id="r19C14" d="M242.0689655172414,321.3793103448276H258.7241379310345V338.0344827586207H242.0689655172414V321.3793103448276Z" fill="#000000"></path><path id="r19C19" d="M321.3793103448276,321.3793103448276H338.0344827586207V338.0344827586207H321.3793103448276V321.3793103448276Z" fill="#000000"></path><path id="r19C20" d="M337.2413793103448,321.3793103448276H353.8965517241379V338.0344827586207H337.2413793103448V321.3793103448276Z" fill="#000000"></path><path id="r19C24" d="M400.68965517241384,321.3793103448276H417.3448275862069V338.0344827586207H400.68965517241384V321.3793103448276Z" fill="#000000"></path><path id="r19C25" d="M416.55172413793105,321.3793103448276H433.2068965517241V338.0344827586207H416.55172413793105V321.3793103448276Z" fill="#000000"></path><path id="r19C27" d="M448.2758620689655,321.3793103448276H464.9310344827586V338.0344827586207H448.2758620689655V321.3793103448276Z" fill="#000000"></path><path id="r19C28" d="M464.1379310344828,321.3793103448276H480.7931034482759V338.0344827586207H464.1379310344828V321.3793103448276Z" fill="#000000"></path><path id="r20C0" d="M20,337.2413793103448H36.6551724137931V353.8965517241379H20V337.2413793103448Z" fill="#000000"></path><path id="r20C1" d="M35.86206896551724,337.2413793103448H52.51724137931034V353.8965517241379H35.86206896551724V337.2413793103448Z" fill="#000000"></path><path id="r20C2" d="M51.724137931034484,337.2413793103448H68.37931034482759V353.8965517241379H51.724137931034484V337.2413793103448Z" fill="#000000"></path><path id="r20C4" d="M83.44827586206897,337.2413793103448H100.10344827586206V353.8965517241379H83.44827586206897V337.2413793103448Z" fill="#000000"></path><path id="r20C6" d="M115.17241379310346,337.2413793103448H131.82758620689657V353.8965517241379H115.17241379310346V337.2413793103448Z" fill="#000000"></path><path id="r20C7" d="M131.0344827586207,337.2413793103448H147.6896551724138V353.8965517241379H131.0344827586207V337.2413793103448Z" fill="#000000"></path><path id="r20C10" d="M178.6206896551724,337.2413793103448H195.27586206896552V353.8965517241379H178.6206896551724V337.2413793103448Z" fill="#000000"></path><path id="r20C14" d="M242.0689655172414,337.2413793103448H258.7241379310345V353.8965517241379H242.0689655172414V337.2413793103448Z" fill="#000000"></path><path id="r20C15" d="M257.9310344827586,337.2413793103448H274.5862068965517V353.8965517241379H257.9310344827586V337.2413793103448Z" fill="#000000"></path><path id="r20C17" d="M289.65517241379314,337.2413793103448H306.3103448275862V353.8965517241379H289.65517241379314V337.2413793103448Z" fill="#000000"></path><path id="r20C20" d="M337.2413793103448,337.2413793103448H353.8965517241379V353.8965517241379H337.2413793103448V337.2413793103448Z" fill="#000000"></path><path id="r20C21" d="M353.1034482758621,337.2413793103448H369.7586206896552V353.8965517241379H353.1034482758621V337.2413793103448Z" fill="#000000"></path><path id="r20C22" d="M368.9655172413793,337.2413793103448H385.6206896551724V353.8965517241379H368.9655172413793V337.2413793103448Z" fill="#000000"></path><path id="r20C23" d="M384.82758620689657,337.2413793103448H401.48275862068965V353.8965517241379H384.82758620689657V337.2413793103448Z" fill="#000000"></path><path id="r20C24" d="M400.68965517241384,337.2413793103448H417.3448275862069V353.8965517241379H400.68965517241384V337.2413793103448Z" fill="#000000"></path><path id="r20C25" d="M416.55172413793105,337.2413793103448H433.2068965517241V353.8965517241379H416.55172413793105V337.2413793103448Z" fill="#000000"></path><path id="r20C26" d="M432.4137931034483,337.2413793103448H449.0689655172414V353.8965517241379H432.4137931034483V337.2413793103448Z" fill="#000000"></path><path id="r20C27" d="M448.2758620689655,337.2413793103448H464.9310344827586V353.8965517241379H448.2758620689655V337.2413793103448Z" fill="#000000"></path><path id="r21C8" d="M146.89655172413794,353.1034482758621H163.55172413793105V369.7586206896552H146.89655172413794V353.1034482758621Z" fill="#000000"></path><path id="r21C11" d="M194.48275862068965,353.1034482758621H211.13793103448276V369.7586206896552H194.48275862068965V353.1034482758621Z" fill="#000000"></path><path id="r21C13" d="M226.20689655172416,353.1034482758621H242.86206896551727V369.7586206896552H226.20689655172416V353.1034482758621Z" fill="#000000"></path><path id="r21C16" d="M273.7931034482759,353.1034482758621H290.44827586206895V369.7586206896552H273.7931034482759V353.1034482758621Z" fill="#000000"></path><path id="r21C18" d="M305.51724137931035,353.1034482758621H322.17241379310343V369.7586206896552H305.51724137931035V353.1034482758621Z" fill="#000000"></path><path id="r21C19" d="M321.3793103448276,353.1034482758621H338.0344827586207V369.7586206896552H321.3793103448276V353.1034482758621Z" fill="#000000"></path><path id="r21C20" d="M337.2413793103448,353.1034482758621H353.8965517241379V369.7586206896552H337.2413793103448V353.1034482758621Z" fill="#000000"></path><path id="r21C24" d="M400.68965517241384,353.1034482758621H417.3448275862069V369.7586206896552H400.68965517241384V353.1034482758621Z" fill="#000000"></path><path id="r21C26" d="M432.4137931034483,353.1034482758621H449.0689655172414V369.7586206896552H432.4137931034483V353.1034482758621Z" fill="#000000"></path><path id="r21C28" d="M464.1379310344828,353.1034482758621H480.7931034482759V369.7586206896552H464.1379310344828V353.1034482758621Z" fill="#000000"></path><path id="r22C8" d="M146.89655172413794,368.9655172413793H163.55172413793105V385.6206896551724H146.89655172413794V368.9655172413793Z" fill="#000000"></path><path id="r22C10" d="M178.6206896551724,368.9655172413793H195.27586206896552V385.6206896551724H178.6206896551724V368.9655172413793Z" fill="#000000"></path><path id="r22C12" d="M210.34482758620692,368.9655172413793H227.00000000000003V385.6206896551724H210.34482758620692V368.9655172413793Z" fill="#000000"></path><path id="r22C13" d="M226.20689655172416,368.9655172413793H242.86206896551727V385.6206896551724H226.20689655172416V368.9655172413793Z" fill="#000000"></path><path id="r22C18" d="M305.51724137931035,368.9655172413793H322.17241379310343V385.6206896551724H305.51724137931035V368.9655172413793Z" fill="#000000"></path><path id="r22C19" d="M321.3793103448276,368.9655172413793H338.0344827586207V385.6206896551724H321.3793103448276V368.9655172413793Z" fill="#000000"></path><path id="r22C20" d="M337.2413793103448,368.9655172413793H353.8965517241379V385.6206896551724H337.2413793103448V368.9655172413793Z" fill="#000000"></path><path id="r22C22" d="M368.9655172413793,368.9655172413793H385.6206896551724V385.6206896551724H368.9655172413793V368.9655172413793Z" fill="#000000"></path><path id="r22C24" d="M400.68965517241384,368.9655172413793H417.3448275862069V385.6206896551724H400.68965517241384V368.9655172413793Z" fill="#000000"></path><path id="r22C28" d="M464.1379310344828,368.9655172413793H480.7931034482759V385.6206896551724H464.1379310344828V368.9655172413793Z" fill="#000000"></path><path id="r23C8" d="M146.89655172413794,384.82758620689657H163.55172413793105V401.48275862068965H146.89655172413794V384.82758620689657Z" fill="#000000"></path><path id="r23C9" d="M162.75862068965517,384.82758620689657H179.41379310344828V401.48275862068965H162.75862068965517V384.82758620689657Z" fill="#000000"></path><path id="r23C10" d="M178.6206896551724,384.82758620689657H195.27586206896552V401.48275862068965H178.6206896551724V384.82758620689657Z" fill="#000000"></path><path id="r23C11" d="M194.48275862068965,384.82758620689657H211.13793103448276V401.48275862068965H194.48275862068965V384.82758620689657Z" fill="#000000"></path><path id="r23C12" d="M210.34482758620692,384.82758620689657H227.00000000000003V401.48275862068965H210.34482758620692V384.82758620689657Z" fill="#000000"></path><path id="r23C13" d="M226.20689655172416,384.82758620689657H242.86206896551727V401.48275862068965H226.20689655172416V384.82758620689657Z" fill="#000000"></path><path id="r23C14" d="M242.0689655172414,384.82758620689657H258.7241379310345V401.48275862068965H242.0689655172414V384.82758620689657Z" fill="#000000"></path><path id="r23C18" d="M305.51724137931035,384.82758620689657H322.17241379310343V401.48275862068965H305.51724137931035V384.82758620689657Z" fill="#000000"></path><path id="r23C19" d="M321.3793103448276,384.82758620689657H338.0344827586207V401.48275862068965H321.3793103448276V384.82758620689657Z" fill="#000000"></path><path id="r23C20" d="M337.2413793103448,384.82758620689657H353.8965517241379V401.48275862068965H337.2413793103448V384.82758620689657Z" fill="#000000"></path><path id="r23C24" d="M400.68965517241384,384.82758620689657H417.3448275862069V401.48275862068965H400.68965517241384V384.82758620689657Z" fill="#000000"></path><path id="r23C25" d="M416.55172413793105,384.82758620689657H433.2068965517241V401.48275862068965H416.55172413793105V384.82758620689657Z" fill="#000000"></path><path id="r23C27" d="M448.2758620689655,384.82758620689657H464.9310344827586V401.48275862068965H448.2758620689655V384.82758620689657Z" fill="#000000"></path><path id="r24C8" d="M146.89655172413794,400.68965517241384H163.55172413793105V417.3448275862069H146.89655172413794V400.68965517241384Z" fill="#000000"></path><path id="r24C9" d="M162.75862068965517,400.68965517241384H179.41379310344828V417.3448275862069H162.75862068965517V400.68965517241384Z" fill="#000000"></path><path id="r24C10" d="M178.6206896551724,400.68965517241384H195.27586206896552V417.3448275862069H178.6206896551724V400.68965517241384Z" fill="#000000"></path><path id="r24C16" d="M273.7931034482759,400.68965517241384H290.44827586206895V417.3448275862069H273.7931034482759V400.68965517241384Z" fill="#000000"></path><path id="r24C17" d="M289.65517241379314,400.68965517241384H306.3103448275862V417.3448275862069H289.65517241379314V400.68965517241384Z" fill="#000000"></path><path id="r24C18" d="M305.51724137931035,400.68965517241384H322.17241379310343V417.3448275862069H305.51724137931035V400.68965517241384Z" fill="#000000"></path><path id="r24C19" d="M321.3793103448276,400.68965517241384H338.0344827586207V417.3448275862069H321.3793103448276V400.68965517241384Z" fill="#000000"></path><path id="r24C20" d="M337.2413793103448,400.68965517241384H353.8965517241379V417.3448275862069H337.2413793103448V400.68965517241384Z" fill="#000000"></path><path id="r24C21" d="M353.1034482758621,400.68965517241384H369.7586206896552V417.3448275862069H353.1034482758621V400.68965517241384Z" fill="#000000"></path><path id="r24C22" d="M368.9655172413793,400.68965517241384H385.6206896551724V417.3448275862069H368.9655172413793V400.68965517241384Z" fill="#000000"></path><path id="r24C23" d="M384.82758620689657,400.68965517241384H401.48275862068965V417.3448275862069H384.82758620689657V400.68965517241384Z" fill="#000000"></path><path id="r24C24" d="M400.68965517241384,400.68965517241384H417.3448275862069V417.3448275862069H400.68965517241384V400.68965517241384Z" fill="#000000"></path><path id="r24C27" d="M448.2758620689655,400.68965517241384H464.9310344827586V417.3448275862069H448.2758620689655V400.68965517241384Z" fill="#000000"></path><path id="r24C28" d="M464.1379310344828,400.68965517241384H480.7931034482759V417.3448275862069H464.1379310344828V400.68965517241384Z" fill="#000000"></path><path id="r25C9" d="M162.75862068965517,416.55172413793105H179.41379310344828V433.2068965517241H162.75862068965517V416.55172413793105Z" fill="#000000"></path><path id="r25C10" d="M178.6206896551724,416.55172413793105H195.27586206896552V433.2068965517241H178.6206896551724V416.55172413793105Z" fill="#000000"></path><path id="r25C12" d="M210.34482758620692,416.55172413793105H227.00000000000003V433.2068965517241H210.34482758620692V416.55172413793105Z" fill="#000000"></path><path id="r25C15" d="M257.9310344827586,416.55172413793105H274.5862068965517V433.2068965517241H257.9310344827586V416.55172413793105Z" fill="#000000"></path><path id="r25C16" d="M273.7931034482759,416.55172413793105H290.44827586206895V433.2068965517241H273.7931034482759V416.55172413793105Z" fill="#000000"></path><path id="r25C18" d="M305.51724137931035,416.55172413793105H322.17241379310343V433.2068965517241H305.51724137931035V416.55172413793105Z" fill="#000000"></path><path id="r25C23" d="M384.82758620689657,416.55172413793105H401.48275862068965V433.2068965517241H384.82758620689657V416.55172413793105Z" fill="#000000"></path><path id="r25C25" d="M416.55172413793105,416.55172413793105H433.2068965517241V433.2068965517241H416.55172413793105V416.55172413793105Z" fill="#000000"></path><path id="r25C27" d="M448.2758620689655,416.55172413793105H464.9310344827586V433.2068965517241H448.2758620689655V416.55172413793105Z" fill="#000000"></path><path id="r26C9" d="M162.75862068965517,432.4137931034483H179.41379310344828V449.0689655172414H162.75862068965517V432.4137931034483Z" fill="#000000"></path><path id="r26C10" d="M178.6206896551724,432.4137931034483H195.27586206896552V449.0689655172414H178.6206896551724V432.4137931034483Z" fill="#000000"></path><path id="r26C13" d="M226.20689655172416,432.4137931034483H242.86206896551727V449.0689655172414H226.20689655172416V432.4137931034483Z" fill="#000000"></path><path id="r26C15" d="M257.9310344827586,432.4137931034483H274.5862068965517V449.0689655172414H257.9310344827586V432.4137931034483Z" fill="#000000"></path><path id="r26C19" d="M321.3793103448276,432.4137931034483H338.0344827586207V449.0689655172414H321.3793103448276V432.4137931034483Z" fill="#000000"></path><path id="r26C20" d="M337.2413793103448,432.4137931034483H353.8965517241379V449.0689655172414H337.2413793103448V432.4137931034483Z" fill="#000000"></path><path id="r26C21" d="M353.1034482758621,432.4137931034483H369.7586206896552V449.0689655172414H353.1034482758621V432.4137931034483Z" fill="#000000"></path><path id="r26C26" d="M432.4137931034483,432.4137931034483H449.0689655172414V449.0689655172414H432.4137931034483V432.4137931034483Z" fill="#000000"></path><path id="r26C27" d="M448.2758620689655,432.4137931034483H464.9310344827586V449.0689655172414H448.2758620689655V432.4137931034483Z" fill="#000000"></path><path id="r26C28" d="M464.1379310344828,432.4137931034483H480.7931034482759V449.0689655172414H464.1379310344828V432.4137931034483Z" fill="#000000"></path><path id="r27C10" d="M178.6206896551724,448.2758620689655H195.27586206896552V464.9310344827586H178.6206896551724V448.2758620689655Z" fill="#000000"></path><path id="r27C13" d="M226.20689655172416,448.2758620689655H242.86206896551727V464.9310344827586H226.20689655172416V448.2758620689655Z" fill="#000000"></path><path id="r27C15" d="M257.9310344827586,448.2758620689655H274.5862068965517V464.9310344827586H257.9310344827586V448.2758620689655Z" fill="#000000"></path><path id="r27C16" d="M273.7931034482759,448.2758620689655H290.44827586206895V464.9310344827586H273.7931034482759V448.2758620689655Z" fill="#000000"></path><path id="r27C17" d="M289.65517241379314,448.2758620689655H306.3103448275862V464.9310344827586H289.65517241379314V448.2758620689655Z" fill="#000000"></path><path id="r27C18" d="M305.51724137931035,448.2758620689655H322.17241379310343V464.9310344827586H305.51724137931035V448.2758620689655Z" fill="#000000"></path><path id="r27C21" d="M353.1034482758621,448.2758620689655H369.7586206896552V464.9310344827586H353.1034482758621V448.2758620689655Z" fill="#000000"></path><path id="r27C23" d="M384.82758620689657,448.2758620689655H401.48275862068965V464.9310344827586H384.82758620689657V448.2758620689655Z" fill="#000000"></path><path id="r27C25" d="M416.55172413793105,448.2758620689655H433.2068965517241V464.9310344827586H416.55172413793105V448.2758620689655Z" fill="#000000"></path><path id="r27C27" d="M448.2758620689655,448.2758620689655H464.9310344827586V464.9310344827586H448.2758620689655V448.2758620689655Z" fill="#000000"></path><path id="r27C28" d="M464.1379310344828,448.2758620689655H480.7931034482759V464.9310344827586H464.1379310344828V448.2758620689655Z" fill="#000000"></path><path id="r28C11" d="M194.48275862068965,464.1379310344828H211.13793103448276V480.7931034482759H194.48275862068965V464.1379310344828Z" fill="#000000"></path><path id="r28C12" d="M210.34482758620692,464.1379310344828H227.00000000000003V480.7931034482759H210.34482758620692V464.1379310344828Z" fill="#000000"></path><path id="r28C13" d="M226.20689655172416,464.1379310344828H242.86206896551727V480.7931034482759H226.20689655172416V464.1379310344828Z" fill="#000000"></path><path id="r28C14" d="M242.0689655172414,464.1379310344828H258.7241379310345V480.7931034482759H242.0689655172414V464.1379310344828Z" fill="#000000"></path><path id="r28C18" d="M305.51724137931035,464.1379310344828H322.17241379310343V480.7931034482759H305.51724137931035V464.1379310344828Z" fill="#000000"></path><path id="r28C19" d="M321.3793103448276,464.1379310344828H338.0344827586207V480.7931034482759H321.3793103448276V464.1379310344828Z" fill="#000000"></path><path id="r28C20" d="M337.2413793103448,464.1379310344828H353.8965517241379V480.7931034482759H337.2413793103448V464.1379310344828Z" fill="#000000"></path><path id="r28C21" d="M353.1034482758621,464.1379310344828H369.7586206896552V480.7931034482759H353.1034482758621V464.1379310344828Z" fill="#000000"></path><path id="r28C22" d="M368.9655172413793,464.1379310344828H385.6206896551724V480.7931034482759H368.9655172413793V464.1379310344828Z" fill="#000000"></path><path id="r28C24" d="M400.68965517241384,464.1379310344828H417.3448275862069V480.7931034482759H400.68965517241384V464.1379310344828Z" fill="#000000"></path><path id="r28C25" d="M416.55172413793105,464.1379310344828H433.2068965517241V480.7931034482759H416.55172413793105V464.1379310344828Z" fill="#000000"></path><path id="r28C26" d="M432.4137931034483,464.1379310344828H449.0689655172414V480.7931034482759H432.4137931034483V464.1379310344828Z" fill="#000000"></path><path id="r28C27" d="M448.2758620689655,464.1379310344828H464.9310344827586V480.7931034482759H448.2758620689655V464.1379310344828Z" fill="#000000"></path><path id="outerEye" d="M20,20v111.0344827586207h111.0344827586207V20H20z M115.17241379310346,115.17241379310346H35.86206896551724V35.86206896551724H115.17241379310346V131.0344827586207z" fill="#000000"></path><path id="outerEye" d="M20,368.9655172413793v111.0344827586207h111.0344827586207V368.9655172413793H20z M115.17241379310346,464.13793103448273H35.86206896551724V384.82758620689657H115.17241379310346V480z" fill="#000000"></path><path id="outerEye" d="M368.9655172413793,20v111.0344827586207h111.0344827586207V20H368.9655172413793z M464.13793103448273,115.17241379310346H384.82758620689657V35.86206896551724H464.1379310344828V131.0344827586207z" fill="#000000"></path><path id="innerEye" d="M51.724137931034484,51.724137931034484v47.58620689655173h47.58620689655173V51.724137931034484H51.724137931034484z" fill="#000000"></path><path id="innerEye" d="M400.68965517241384,51.724137931034484v47.58620689655173h47.58620689655173V51.724137931034484H400.68965517241384z" fill="#000000"></path><path id="innerEye" d="M51.724137931034484,400.68965517241384v47.58620689655173h47.58620689655173V400.68965517241384H51.724137931034484z" fill="#000000"></path></svg>